<?xml version="1.0" standalone="no"?>
<!DOCTYPE svg PUBLIC "-//W3C//DTD SVG 20010904//EN"
        "http://www.w3.org/TR/2001/REC-SVG-20010904/DTD/svg10.dtd">
<svg version="1.0" xmlns="http://www.w3.org/2000/svg"
     width="1024.000000pt" height="259.000000pt" viewBox="0 0 1024.000000 259.000000"
     preserveAspectRatio="xMidYMid meet">

    <g transform="translate(0.000000,259.000000) scale(0.100000,-0.100000)"
       fill="#000000" stroke="none">
        <path d="M660 2497 c-14 -7 -31 -25 -38 -40 -19 -38 -413 -2005 -410 -2042 5
-46 33 -55 193 -55 171 0 212 9 230 53 7 18 65 295 130 617 131 658 146 714
182 692 17 -11 47 -163 84 -427 30 -210 41 -285 89 -595 11 -74 25 -165 30
-201 20 -136 31 -143 220 -137 109 3 134 7 156 23 26 20 49 58 219 370 519
952 533 976 569 983 32 7 28 -18 -135 -827 -55 -272 -97 -502 -94 -512 9 -28
68 -39 213 -39 146 0 195 12 212 52 12 28 410 2014 410 2045 0 13 -11 29 -24
38 -21 14 -64 15 -310 13 l-286 -3 -29 -30 c-25 -26 -258 -460 -628 -1172 -95
-182 -117 -209 -147 -184 -8 7 -19 46 -25 89 -6 42 -25 165 -41 272 -16 107
-36 251 -45 320 -13 108 -53 384 -86 602 -17 107 -3 103 -333 106 -214 2 -287
-1 -306 -11z"/>
        <path d="M7100 1951 c-115 -17 -198 -43 -295 -91 -228 -112 -404 -304 -496
-538 -58 -149 -73 -225 -73 -377 -1 -212 38 -321 160 -443 118 -118 271 -173
486 -173 325 -1 577 130 754 392 38 57 43 93 15 109 -27 14 -267 13 -294 -2
-12 -6 -45 -32 -73 -57 -125 -113 -290 -155 -449 -115 -121 31 -185 120 -185
259 0 53 4 69 24 92 l24 28 519 5 c383 4 524 8 539 17 28 16 41 55 54 161 28
223 -36 451 -160 573 -64 62 -182 127 -272 148 -65 15 -211 21 -278 12z m155
-333 c84 -37 131 -100 142 -186 15 -127 3 -132 -335 -132 -293 0 -322 5 -322
52 0 43 26 92 81 152 85 93 200 139 329 132 41 -2 89 -10 105 -18z"/>
        <path d="M9651 1941 c-13 -23 -5 -31 31 -31 15 0 28 -3 28 -7 -1 -5 -9 -47
-19 -95 -10 -48 -16 -90 -13 -93 3 -3 16 -5 28 -5 16 0 25 7 29 23 8 34 35
168 35 173 0 2 15 4 34 4 32 0 46 13 46 41 0 5 -43 9 -95 9 -82 0 -96 -2 -104
-19z"/>
        <path d="M9885 1948 c-7 -19 -45 -208 -45 -224 0 -21 48 -18 54 4 2 9 10 43
17 74 7 32 15 55 19 53 4 -3 11 -30 15 -61 9 -74 13 -84 35 -84 13 0 32 25 61
77 46 83 57 83 40 3 -16 -73 -14 -80 14 -80 17 0 26 7 30 23 7 30 45 218 45
223 0 2 -17 4 -39 4 -37 0 -40 -3 -80 -70 -23 -38 -45 -71 -50 -74 -5 -3 -15
27 -22 67 l-14 72 -38 3 c-24 2 -39 -1 -42 -10z"/>
        <path d="M3698 1940 c-76 -12 -230 -61 -293 -93 -76 -38 -166 -109 -208 -165
-83 -110 -116 -199 -85 -230 15 -15 314 -17 352 -2 14 5 41 34 60 63 69 108
143 148 286 155 57 2 113 0 139 -8 57 -15 107 -65 116 -114 15 -76 -36 -175
-107 -212 -35 -18 -179 -50 -268 -59 -354 -36 -528 -93 -647 -212 -199 -198
-215 -533 -31 -655 67 -45 130 -66 232 -79 158 -20 357 16 510 92 93 47 109
47 133 -2 28 -54 43 -59 204 -59 150 0 192 8 205 39 4 9 10 63 14 121 5 65 43
278 100 560 102 505 108 562 71 647 -41 92 -123 153 -262 194 -62 18 -105 22
-269 25 -107 1 -221 -1 -252 -6z m270 -913 c4 -58 -35 -183 -77 -248 -41 -65
-110 -123 -177 -150 -82 -32 -249 -34 -309 -4 -105 53 -115 191 -22 292 69 75
132 98 392 142 61 10 128 18 150 17 l40 -1 3 -48z"/>
        <path d="M8965 1938 c-63 -11 -216 -85 -275 -132 -69 -55 -91 -48 -95 30 -3
72 -8 74 -176 74 -156 0 -191 -7 -208 -39 -14 -25 -291 -1403 -291 -1444 0
-61 3 -62 189 -62 166 0 170 1 195 24 33 31 33 31 107 406 112 574 144 666
261 751 65 48 146 74 232 74 83 0 139 -22 179 -69 59 -70 51 -180 -53 -696
-44 -220 -80 -414 -80 -432 0 -55 24 -63 192 -63 80 0 158 4 172 10 15 5 33
24 41 42 14 31 78 333 175 833 38 191 41 221 38 330 -3 94 -9 130 -25 167 -43
95 -129 163 -246 194 -59 16 -254 17 -332 2z"/>
        <path d="M5079 1756 c-2 -2 -20 -5 -39 -7 -19 -2 -39 -5 -45 -8 -5 -3 -18 -6
-30 -8 -63 -9 -60 -5 -58 -79 6 -173 88 -590 182 -924 27 -96 47 -177 45 -179
-16 -17 -54 103 -128 409 -58 237 -92 422 -113 615 -16 149 -17 154 -38 149
-24 -6 -56 -12 -69 -13 -8 -1 -4 -200 8 -341 24 -282 95 -551 192 -729 l35
-64 -45 6 c-25 4 -46 5 -46 3 0 -2 28 -17 63 -34 35 -18 71 -40 81 -51 17 -19
17 -20 -21 -41 l-38 -21 38 6 37 6 -20 -33 c-30 -50 -24 -54 16 -11 l37 38 15
-35 c14 -34 13 -37 -33 -130 -88 -174 -134 -280 -125 -280 6 0 47 74 92 165
46 91 85 165 88 165 3 0 30 -75 59 -165 30 -91 59 -165 63 -165 11 0 15 -16
-52 184 l-59 178 20 39 c10 21 24 39 30 39 6 0 8 4 4 10 -6 10 44 107 188 360
177 309 355 578 520 781 48 61 87 112 85 114 -2 1 -19 10 -38 20 -19 10 -38
23 -42 29 -9 14 -80 -54 -201 -194 -235 -270 -404 -544 -481 -776 -16 -48 -50
-94 -61 -82 -3 3 6 31 21 62 53 115 55 239 8 407 l-17 60 -23 -22 -22 -21 13
39 c8 21 14 58 15 83 l0 45 -21 -34 c-27 -44 -31 -36 -12 21 14 43 14 54 -2
124 l-17 76 -28 -33 -29 -34 15 50 c12 41 13 66 4 140 -11 89 -13 99 -21 91z
m63 -1258 c-8 -8 -12 -9 -12 -1 0 6 -3 20 -6 30 -7 17 -6 17 12 1 14 -14 16
-20 6 -30z m33 -41 c10 -11 10 -18 0 -36 l-12 -24 -12 33 c-6 18 -11 35 -11
36 0 9 23 3 35 -9z"/>
        <path d="M5956 1587 c-99 -123 -217 -289 -308 -433 -175 -277 -417 -712 -401
-723 5 -3 17 -17 27 -31 l18 -25 -7 25 c-4 14 -10 31 -12 38 -4 9 15 12 73 12
83 0 143 20 176 56 16 18 15 19 -30 16 l-47 -2 51 20 c50 20 134 83 134 101 0
5 -13 3 -30 -6 -39 -20 -109 -29 -157 -20 l-38 8 58 13 c165 39 305 166 411
373 l18 33 -36 -4 c-20 -2 -36 -3 -36 -2 0 1 19 12 43 23 42 20 121 91 101 91
-5 0 -25 -4 -43 -10 -50 -14 -49 -6 2 19 54 26 86 60 128 135 26 47 29 58 15
53 -10 -4 -36 -10 -59 -13 l-42 -6 50 25 c52 26 98 69 159 150 35 47 47 75 26
62 -6 -3 -13 1 -16 9 -3 9 -10 13 -15 10 -5 -3 -9 0 -9 5 0 6 -7 11 -15 11 -8
0 -15 4 -15 9 0 4 -23 22 -50 39 l-50 31 -74 -92z"/>
    </g>
</svg>
