<?xml version="1.0" standalone="no"?>
<!DOCTYPE svg PUBLIC "-//W3C//DTD SVG 20010904//EN"
        "http://www.w3.org/TR/2001/REC-SVG-20010904/DTD/svg10.dtd">
<svg version="1.0" xmlns="http://www.w3.org/2000/svg"
     width="259.000000pt" height="194.000000pt" viewBox="0 0 259.000000 194.000000"
     preserveAspectRatio="xMidYMid meet">

    <g transform="translate(0.000000,194.000000) scale(0.100000,-0.100000)"
       fill="#000000" stroke="none">
        <path d="M1138 1637 c-346 -118 -449 -554 -192 -811 156 -156 389 -189 586
-84 75 40 172 143 209 222 125 266 -19 590 -300 676 -90 28 -215 27 -303 -3z
m422 -182 c0 -8 6 -15 14 -15 17 0 29 -42 15 -51 -6 -3 -10 -9 -10 -13 3 -18
-1 -22 -29 -34 -30 -14 -65 -4 -82 22 -16 24 -8 75 14 90 29 21 78 21 78 1z
m-127 -111 c-5 -13 -2 -15 16 -9 25 8 40 -18 22 -39 -9 -10 -9 -15 -1 -18 13
-4 -60 -106 -109 -152 -31 -29 -61 -30 -61 -1 0 8 -7 15 -15 15 -8 0 -15 7
-15 15 0 8 -6 15 -14 15 -7 0 -18 6 -24 13 -9 10 3 27 51 74 85 84 167 131
150 87z m-209 -173 c3 -5 -1 -12 -10 -15 -27 -11 -37 -7 -24 9 14 17 26 19 34
6z m75 -75 c10 -12 4 -21 -36 -50 -26 -19 -74 -49 -106 -67 -51 -27 -58 -34
-54 -56 l4 -24 -24 22 -24 23 78 78 c42 42 86 79 97 81 41 8 54 7 65 -7z
m-229 -181 c11 -13 8 -15 -20 -15 -28 0 -31 2 -20 15 7 8 16 15 20 15 4 0 13
-7 20 -15z"/>
        <path d="M520 390 c0 -100 3 -120 15 -120 11 0 15 12 15 45 0 45 0 45 35 45
45 0 75 29 75 73 0 17 -4 37 -8 43 -13 20 -50 34 -91 34 l-41 0 0 -120z m105
60 c10 -31 -12 -60 -45 -60 -28 0 -30 2 -30 40 0 39 1 40 34 40 26 0 36 -5 41
-20z"/>
        <path d="M782 500 c-29 -12 -42 -48 -42 -119 0 -73 25 -111 74 -111 58 0 70
18 74 109 4 75 2 81 -22 105 -26 27 -46 31 -84 16z m63 -115 c0 -69 -2 -80
-18 -83 -34 -7 -47 17 -47 88 0 36 3 70 7 74 4 4 19 6 33 4 24 -3 25 -5 25
-83z"/>
        <path d="M1010 497 c-20 -10 -25 -20 -25 -52 0 -36 4 -42 39 -60 50 -26 64
-48 47 -69 -17 -20 -40 -20 -68 -1 -28 20 -41 1 -17 -26 11 -12 30 -19 54 -19
49 0 72 26 68 77 -3 34 -8 40 -48 60 -61 29 -62 58 -3 59 52 1 65 11 39 30
-24 17 -53 18 -86 1z"/>
        <path d="M1192 493 c2 -11 14 -19 31 -21 l27 -3 0 -100 c0 -76 3 -100 13 -97
8 3 13 35 15 101 l3 96 27 3 c16 2 27 9 27 18 0 12 -16 16 -73 18 -66 3 -73 1
-70 -15z"/>
        <path d="M1427 503 c-4 -3 -7 -57 -7 -120 0 -94 3 -113 15 -113 12 0 15 16 16
83 l0 82 22 -42 c11 -24 26 -43 32 -43 6 0 21 17 33 38 l22 37 0 -78 c0 -66 3
-78 16 -75 8 2 15 6 15 11 -1 4 -1 57 -1 118 0 127 -7 133 -55 51 l-31 -51
-27 54 c-26 53 -36 63 -50 48z"/>
        <path d="M1745 500 c-11 -17 -65 -194 -65 -212 0 -27 27 -21 34 7 5 21 12 25
45 25 33 0 40 -4 45 -25 6 -23 30 -34 39 -17 7 12 -67 226 -80 229 -6 2 -14
-1 -18 -7z m33 -110 c10 -40 10 -40 -18 -40 -28 0 -28 0 -18 40 6 22 14 40 18
40 4 0 12 -18 18 -40z"/>
        <path d="M1930 390 c0 -100 3 -120 15 -120 12 0 15 15 15 78 l1 77 40 -77 c58
-114 70 -107 67 40 -3 133 -20 159 -28 42 l-5 -75 -19 40 c-29 60 -65 115 -76
115 -6 0 -10 -48 -10 -120z"/>
    </g>
</svg>
