<?xml version="1.0" standalone="no"?>
<!DOCTYPE svg PUBLIC "-//W3C//DTD SVG 20010904//EN"
 "http://www.w3.org/TR/2001/REC-SVG-20010904/DTD/svg10.dtd">
<svg version="1.0" xmlns="http://www.w3.org/2000/svg"
 width="900.000000pt" height="473.000000pt" viewBox="0 0 900.000000 473.000000"
 preserveAspectRatio="xMidYMid meet">

<g transform="translate(0.000000,473.000000) scale(0.100000,-0.100000)"
fill="#000000" stroke="none">
<path d="M4260 3083 l0 -253 -120 0 -120 0 0 -75 0 -74 118 -3 117 -3 3 -602
2 -601 88 3 87 4 3 600 2 601 135 0 135 0 0 75 0 75 -135 0 -135 0 0 249 0
250 -90 3 -90 3 0 -252z"/>
<path d="M610 3215 l0 -95 205 0 205 0 0 -826 0 -826 23 6 c12 3 55 6 95 6
l72 0 0 820 0 820 203 2 202 3 0 90 0 90 -502 3 -503 2 0 -95z"/>
<path d="M4870 2395 l0 -915 95 0 95 0 0 687 0 687 34 -40 c19 -21 44 -50 56
-64 12 -14 58 -67 103 -119 45 -52 161 -185 257 -295 97 -111 272 -311 389
-446 118 -135 241 -276 275 -314 34 -37 65 -74 69 -82 4 -8 19 -14 32 -14 l25
0 0 913 0 912 -90 0 -90 0 0 -698 0 -698 -41 48 c-23 26 -63 73 -89 103 -27
30 -58 66 -70 80 -11 14 -45 52 -74 85 -29 33 -66 76 -82 95 -15 19 -48 58
-74 85 -25 28 -70 79 -100 114 -30 35 -59 69 -65 75 -5 6 -37 43 -70 81 -33
39 -62 72 -65 75 -3 3 -30 34 -60 70 -30 36 -69 81 -86 100 -17 19 -69 78
-114 130 -45 52 -108 124 -139 160 -78 90 -89 100 -106 100 -13 0 -15 -108
-15 -915z"/>
<path d="M2250 2858 c-275 -32 -497 -236 -575 -529 -14 -54 -16 -94 -13 -205
4 -124 8 -148 35 -221 67 -178 186 -315 337 -388 116 -55 182 -69 331 -69 95
0 137 5 200 22 176 51 309 157 413 329 l31 51 -22 15 c-32 21 -129 69 -131 65
-2 -2 -21 -31 -44 -64 -63 -94 -124 -149 -215 -194 -346 -170 -710 28 -753
409 l-7 61 607 0 606 0 0 44 c0 180 -94 386 -233 511 -144 129 -350 189 -567
163z m240 -179 c154 -42 248 -116 310 -242 22 -45 42 -94 46 -109 l6 -28 -496
0 c-273 0 -496 3 -496 6 0 19 58 146 83 183 118 173 336 249 547 190z"/>
<path d="M3478 2859 c-109 -17 -214 -93 -266 -194 -34 -66 -43 -199 -18 -272
39 -114 112 -183 312 -294 71 -39 146 -85 168 -102 41 -33 86 -115 86 -158 0
-46 -31 -118 -67 -154 -59 -59 -88 -70 -183 -70 -100 1 -145 19 -227 90 -28
25 -55 45 -60 45 -8 -1 -95 -103 -101 -119 -6 -17 88 -95 160 -131 172 -86
354 -76 492 29 102 76 164 214 153 338 -14 151 -98 251 -303 364 -154 85 -232
144 -261 199 -82 154 69 309 252 259 33 -9 103 -51 190 -113 9 -7 27 6 64 45
28 30 51 58 51 62 0 11 -51 54 -119 99 -96 65 -216 93 -323 77z"/>
</g>
</svg>
